# xmcd
#
# Track frame offsets:
#	150
#	7875
#	74357
#	132315
#	148080
#	163684
#	169189
#
# Disc length: 2694 seconds
#
# Revision: 1
# Processed by: cddbd v1.5.2PL0 Copyright (c) Steve Scherf et al.
# Submitted via: audiograbber 1.83.01
#
DISCID=5d0a8407
DTITLE=Grateful Dead - 73-02-19 International Amphitheatre, Chicago IL
DYEAR=1900
DGENRE=
TTITLE0=Tuning
TTITLE1=He's Gone
TTITLE2=Truckin' > Jam
TTITLE3=The Other One
TTITLE4=Phil and Billy
TTITLE5=Drums > Space
TTITLE6=The Other One
EXTD=
EXTT0=
EXTT1=
EXTT2=
EXTT3=
EXTT4=
EXTT5=
EXTT6=
PLAYORDER=
